<svg xmlns="http://www.w3.org/2000/svg" width="370.954" height="84.16" viewBox="0 0 370.954 84.16"><g transform="translate(-70.046 -92)"><rect width="34" height="19" rx="6" transform="translate(407 92)" fill="#f60"/><path d="M12.214.62Q7.254.62,4.65-2.2t-2.6-8.091V-33.108q0-5.27,2.6-8.091t7.564-2.821q4.96,0,7.564,2.821t2.6,8.091v3.72H15.934v-4.154q0-4.278-3.534-4.278T8.866-33.542V-9.8q0,4.216,3.534,4.216T15.934-9.8V-18.29h-3.41v-6.2h9.858v14.2q0,5.27-2.6,8.091T12.214.62ZM26.784-43.4H36.89q5.27,0,7.688,2.449T47-33.418v2.666q0,6.758-4.464,8.556v.124a5.323,5.323,0,0,1,3.5,3.038A15.3,15.3,0,0,1,47.058-12.9V-5.27a29.158,29.158,0,0,0,.124,3.007A7.546,7.546,0,0,0,47.8,0H40.858a9.94,9.94,0,0,1-.5-1.984,29.845,29.845,0,0,1-.124-3.348v-7.936q0-2.976-.961-4.154A4.065,4.065,0,0,0,35.96-18.6H33.6V0h-6.82Zm9.3,18.6a4.093,4.093,0,0,0,3.069-1.054,4.98,4.98,0,0,0,1.023-3.534v-3.348a5.509,5.509,0,0,0-.837-3.41A3.161,3.161,0,0,0,36.7-37.2H33.6v12.4ZM57.04-43.4h9.238L73.346,0h-6.82l-1.24-8.618v.124h-7.75L56.3,0H49.972Zm7.44,29.016L61.442-35.836h-.124L58.342-14.384ZM76.632-43.4H86.676q5.084,0,7.626,2.728t2.542,8V-28.4q0,5.27-2.542,8T86.676-17.67H83.452V0h-6.82ZM86.676-23.87a3.208,3.208,0,0,0,2.511-.93,4.714,4.714,0,0,0,.837-3.162v-5.146a4.714,4.714,0,0,0-.837-3.162,3.208,3.208,0,0,0-2.511-.93H83.452v13.33ZM100.564-43.4h6.82v17.67H114.7V-43.4h6.82V0H114.7V-19.53h-7.316V0h-6.82Zm34.162,0h6.882l4.464,33.666h.124L150.66-43.4h6.262L150.35,0H141.3Zm25.482,0h6.82V0h-6.82ZM180.978.62q-4.96,0-7.5-2.821t-2.542-8.091v-2.48h6.448V-9.8q0,4.216,3.534,4.216A3.321,3.321,0,0,0,183.551-6.6a4.974,4.974,0,0,0,.9-3.317,9.193,9.193,0,0,0-1.24-4.8,22.919,22.919,0,0,0-4.588-4.991,27.467,27.467,0,0,1-5.89-6.727,13.718,13.718,0,0,1-1.674-6.789q0-5.146,2.6-7.967t7.564-2.821q4.9,0,7.409,2.821t2.511,8.091v1.8H184.7v-2.232a4.986,4.986,0,0,0-.868-3.255,3.148,3.148,0,0,0-2.542-1.023q-3.41,0-3.41,4.154a8.193,8.193,0,0,0,1.271,4.4,24.294,24.294,0,0,0,4.619,4.96,25.52,25.52,0,0,1,5.89,6.758,15,15,0,0,1,1.612,7.13q0,5.332-2.635,8.184T180.978.62ZM205.1.62q-4.96,0-7.564-2.821t-2.6-8.091V-43.4h6.82V-9.8a4.733,4.733,0,0,0,.9,3.224,3.3,3.3,0,0,0,2.573.992,3.3,3.3,0,0,0,2.573-.992,4.733,4.733,0,0,0,.9-3.224V-43.4h6.572v33.108q0,5.27-2.6,8.091T205.1.62Zm20.15-44.02h9.238L241.552,0h-6.82l-1.24-8.618v.124h-7.75L224.5,0h-6.324Zm7.44,29.016-3.038-21.452h-.124l-2.976,21.452ZM244.838-43.4h6.82V-6.2H262.88V0H244.838Zm21.328,0h6.82V0h-6.82Zm10.54,37.324L289.354-37.2H277.326v-6.2H296.67v6.076L284.022-6.2H296.67V0H276.706ZM300.514-43.4h18.6v6.2h-11.78v11.47H316.7v6.2h-9.362V-6.2h11.78V0h-18.6Zm22.506,0h10.106q5.27,0,7.688,2.449t2.418,7.533v2.666q0,6.758-4.464,8.556v.124a5.323,5.323,0,0,1,3.5,3.038,15.3,15.3,0,0,1,1.023,6.138V-5.27a29.157,29.157,0,0,0,.124,3.007A7.546,7.546,0,0,0,344.038,0h-6.944a9.94,9.94,0,0,1-.5-1.984,29.845,29.845,0,0,1-.124-3.348v-7.936q0-2.976-.961-4.154A4.065,4.065,0,0,0,332.2-18.6H329.84V0h-6.82Zm9.3,18.6a4.093,4.093,0,0,0,3.069-1.054,4.98,4.98,0,0,0,1.023-3.534v-3.348a5.509,5.509,0,0,0-.837-3.41A3.161,3.161,0,0,0,332.94-37.2h-3.1v12.4Z" transform="translate(68 157)"/><path d="M9.44-5.824a2.685,2.685,0,0,0,1.44-2.464c0-1.776-1.44-2.912-4.128-2.912H1.5V0H7.072c2.88,0,4.384-1.12,4.384-3.04A2.758,2.758,0,0,0,9.44-5.824ZM6.528-9.568c1.44,0,2.256.512,2.256,1.552,0,1.024-.816,1.536-2.256,1.536H3.584V-9.568Zm.416,7.936H3.584V-4.864h3.36c1.568,0,2.416.5,2.416,1.616S8.512-1.632,6.944-1.632ZM22.656-11.2H20.608L17.3-5.744,14.016-11.2H11.792l4.4,7.28V0h2.08V-3.952Zm13.664,0v7.584L30.144-11.2H28.432V0H30.5V-7.584L36.672,0h1.712V-11.2ZM49.776,0h2.176L46.9-11.2H44.848L39.808,0h2.144l1.1-2.592h5.6ZM43.76-4.224l2.1-4.9,2.112,4.9ZM56.848.16c3.072,0,4.528-1.536,4.528-3.328,0-4.112-6.64-2.56-6.64-4.944,0-.848.7-1.52,2.432-1.52a6.224,6.224,0,0,1,3.088.88l.656-1.616a7.081,7.081,0,0,0-3.728-.992c-3.072,0-4.512,1.536-4.512,3.344,0,4.16,6.656,2.576,6.656,4.992,0,.832-.736,1.456-2.48,1.456a6.206,6.206,0,0,1-3.7-1.232l-.72,1.616A7.217,7.217,0,0,0,56.848.16Zm8.672-1.9V-4.832h5.408V-6.544H65.52V-9.456h6.1V-11.2H63.44V0h8.4V-1.744Zm10.72,0V-4.832h5.408V-6.544H76.24V-9.456h6.1V-11.2H74.16V0h8.4V-1.744ZM97.136,0,97.12-11.2H95.408L91.04-3.776,86.592-11.2H84.88V0h1.984V-7.328l3.68,6.048h.928l3.68-6.144L95.168,0Zm10.912.16c3.072,0,4.528-1.536,4.528-3.328,0-4.112-6.64-2.56-6.64-4.944,0-.848.7-1.52,2.432-1.52a6.224,6.224,0,0,1,3.088.88l.656-1.616a7.081,7.081,0,0,0-3.728-.992c-3.072,0-4.512,1.536-4.512,3.344,0,4.16,6.656,2.576,6.656,4.992,0,.832-.736,1.456-2.48,1.456a6.206,6.206,0,0,1-3.7-1.232l-.72,1.616A7.217,7.217,0,0,0,108.048.16ZM122.512-11.2v4.624H116.72V-11.2h-2.08V0h2.08V-4.8h5.792V0h2.08V-11.2ZM135.984,0h2.176L133.1-11.2h-2.048L126.016,0h2.144l1.1-2.592h5.6Zm-6.016-4.224,2.1-4.9,2.112,4.9ZM147.456-11.2v4.624h-5.792V-11.2h-2.08V0h2.08V-4.8h5.792V0h2.08V-11.2Z" transform="translate(261 176)"/><path d="M.656-11.2H3.312a2.693,2.693,0,0,1,1.984.632A2.669,2.669,0,0,1,5.92-8.624v.448a3.075,3.075,0,0,1-.28,1.408,1.641,1.641,0,0,1-.856.784v.032Q6.1-5.5,6.1-3.616v.96A2.676,2.676,0,0,1,5.416-.68,2.7,2.7,0,0,1,3.424,0H.656ZM3.1-6.64A1.056,1.056,0,0,0,3.9-6.912a1.285,1.285,0,0,0,.264-.912v-.624a1.422,1.422,0,0,0-.216-.88.816.816,0,0,0-.68-.272H2.416v2.96Zm.32,5.04a.882.882,0,0,0,.688-.248A1.278,1.278,0,0,0,4.336-2.7V-3.68a1.621,1.621,0,0,0-.264-1.064,1.118,1.118,0,0,0-.872-.3H2.416V-1.6Zm3.7-9.6h4.8v1.6H8.88v2.96H11.3v1.6H8.88V-1.6h3.04V0H7.12ZM14.3-9.6h-1.84v-1.6H17.9v1.6h-1.84V0H14.3Zm5.072-1.6H21.76L23.584,0h-1.76L21.5-2.224v.032h-2L19.184,0H17.552ZM21.3-3.712l-.784-5.536H20.48l-.768,5.536Z" transform="translate(412 107)" fill="#fff"/></g></svg>