<svg xmlns="http://www.w3.org/2000/svg" width="33.287" height="31.549" viewBox="0 0 33.287 31.549"><g transform="translate(-340.276 -61.975)"><path d="M-63.373-9.275H-75.5a5.506,5.506,0,0,1-5.5-5.5V-30.5A5.506,5.506,0,0,1-75.5-36h15.725a5.506,5.506,0,0,1,5.5,5.5v10.969c-5.171-4.187-8.092-6.53-8.682-6.961a1.439,1.439,0,0,0-.791-.336.534.534,0,0,0-.392.163,1.807,1.807,0,0,0-.326,1.073l1.094,16.316Zm-10.9-10.7a4,4,0,0,0-4,4,4,4,0,0,0,4,4,4.005,4.005,0,0,0,4-4A4,4,0,0,0-74.277-19.975Zm4-11a4.005,4.005,0,0,0-4,4,4,4,0,0,0,4,4,4,4,0,0,0,4-4A4,4,0,0,0-70.277-30.975Z" transform="translate(421.276 97.975)"/><path d="M0,15.431,6.987,0l7.457,15.431L6.987,13.144Z" transform="matrix(0.875, -0.485, 0.485, 0.875, 353.448, 80.028)"/></g></svg>